<?xml version="1.0" standalone="no"?><svg xmlns:xlink="http://www.w3.org/1999/xlink" xmlns="http://www.w3.org/2000/svg" viewBox="0 0 1080 607.5072835005841" preserveAspectRatio="xMaxYMax slice"><g transform="scale(1.2666957537543455)"><rect x="0" y="0" width="852.6222222222223" height="479.6" fill="#000814"/><rect x="106.57777777777778" y="0" width="53.28888888888889" height="53.28888888888889" fill="#000814"/><g transform="translate(133.22,0) scale(1.332) rotate(0)"><path fill-rule="evenodd" clip-rule="evenodd" d="M10 20C15.5228 20 20 15.5228 20 10C20 4.47715 15.5228 0 10 0C4.47715 0 0 4.47715 0 10C0 15.5228 4.47715 20 10 20ZM10 17C13.866 17 17 13.866 17 10C17 6.13401 13.866 3 10 3C6.13401 3 3 6.13401 3 10C3 13.866 6.13401 17 10 17Z" fill="#4c400e"/></g><rect x="479.6" y="0" width="53.28888888888889" height="53.28888888888889" fill="#000814"/><g transform="translate(506.24,0) scale(1.332) rotate(0)"><rect width="2" height="20" fill="#9c7a08"/><rect x="4" width="2" height="20" fill="#9c7a08"/><rect x="8" width="2" height="20" fill="#9c7a08"/><rect x="12" width="2" height="20" fill="#9c7a08"/><rect x="16" width="2" height="20" fill="#9c7a08"/></g><g transform="translate(506.24,26.64) scale(1.332) rotate(0)"><path fill-rule="evenodd" clip-rule="evenodd" d="M10 20C15.5228 20 20 15.5228 20 10C20 4.47715 15.5228 0 10 0C4.47715 0 0 4.47715 0 10C0 15.5228 4.47715 20 10 20ZM10 17C13.866 17 17 13.866 17 10C17 6.13401 13.866 3 10 3C6.13401 3 3 6.13401 3 10C3 13.866 6.13401 17 10 17Z" fill="#3f360f"/></g><rect x="639.4666666666667" y="0" width="53.28888888888889" height="53.28888888888889" fill="#000814"/><g transform="translate(639.47,26.64) scale(1.332) rotate(0)"><rect width="2" height="20" fill="#aa8507"/><rect x="4" width="2" height="20" fill="#aa8507"/><rect x="8" width="2" height="20" fill="#aa8507"/><rect x="12" width="2" height="20" fill="#aa8507"/><rect x="16" width="2" height="20" fill="#aa8507"/></g><rect x="799.3333333333334" y="0" width="53.28888888888889" height="53.28888888888889" fill="#000814"/><g transform="translate(799.33,0) scale(1.332) rotate(0)"><path d="M5 0H10L5 5L0 10V5L5 0Z" fill="#bb9105"/><path d="M20 15V20H15L20 15Z" fill="#bb9105"/><path d="M20 5V10L15 15L10 20H5L20 5Z" fill="#bb9105"/><path d="M15 0H20L5 15.0002L0 20.0002V15.0002L15 0Z" fill="#bb9105"/></g><g transform="translate(799.33,26.64) scale(1.332) rotate(0)"><path fill-rule="evenodd" clip-rule="evenodd" d="M10 20C15.5228 20 20 15.5228 20 10C20 4.47715 15.5228 0 10 0C4.47715 0 0 4.47715 0 10C0 15.5228 4.47715 20 10 20ZM10 17C13.866 17 17 13.866 17 10C17 6.13401 13.866 3 10 3C6.13401 3 3 6.13401 3 10C3 13.866 6.13401 17 10 17Z" fill="#0e1213"/></g><g transform="translate(825.98,26.64) scale(1.332) rotate(0)"><rect width="2" height="20" fill="#bd9305"/><rect x="4" width="2" height="20" fill="#bd9305"/><rect x="8" width="2" height="20" fill="#bd9305"/><rect x="12" width="2" height="20" fill="#bd9305"/><rect x="16" width="2" height="20" fill="#bd9305"/></g><rect x="106.57777777777778" y="53.28888888888889" width="53.28888888888889" height="53.28888888888889" fill="#000814"/><g transform="translate(106.58,53.29) scale(1.332) rotate(0)"><path fill-rule="evenodd" clip-rule="evenodd" d="M10 20C15.5228 20 20 15.5228 20 10C20 4.47715 15.5228 0 10 0C4.47715 0 0 4.47715 0 10C0 15.5228 4.47715 20 10 20ZM10 17C13.866 17 17 13.866 17 10C17 6.13401 13.866 3 10 3C6.13401 3 3 6.13401 3 10C3 13.866 6.13401 17 10 17Z" fill="#d9a703"/></g><g transform="translate(106.58,79.93) scale(1.332) rotate(0)"><path d="M5 0H10L5 5L0 10V5L5 0Z" fill="#d6a503"/><path d="M20 15V20H15L20 15Z" fill="#d6a503"/><path d="M20 5V10L15 15L10 20H5L20 5Z" fill="#d6a503"/><path d="M15 0H20L5 15.0002L0 20.0002V15.0002L15 0Z" fill="#d6a503"/></g><rect x="319.73333333333335" y="53.28888888888889" width="53.28888888888889" height="53.28888888888889" fill="#000814"/><rect x="426.31111111111113" y="53.28888888888889" width="53.28888888888889" height="53.28888888888889" fill="#000814"/><g transform="translate(452.96,53.29) scale(1.332) rotate(0)"><path d="M5 0H10L5 5L0 10V5L5 0Z" fill="#cfa004"/><path d="M20 15V20H15L20 15Z" fill="#cfa004"/><path d="M20 5V10L15 15L10 20H5L20 5Z" fill="#cfa004"/><path d="M15 0H20L5 15.0002L0 20.0002V15.0002L15 0Z" fill="#cfa004"/></g><g transform="translate(426.31,79.93) scale(1.332) rotate(0)"><path d="M5 0H10L5 5L0 10V5L5 0Z" fill="#282511"/><path d="M20 15V20H15L20 15Z" fill="#282511"/><path d="M20 5V10L15 15L10 20H5L20 5Z" fill="#282511"/><path d="M15 0H20L5 15.0002L0 20.0002V15.0002L15 0Z" fill="#282511"/></g><g transform="translate(452.96,79.93) scale(1.332) rotate(0)"><path d="M5 0H10L5 5L0 10V5L5 0Z" fill="#edb601"/><path d="M20 15V20H15L20 15Z" fill="#edb601"/><path d="M20 5V10L15 15L10 20H5L20 5Z" fill="#edb601"/><path d="M15 0H20L5 15.0002L0 20.0002V15.0002L15 0Z" fill="#edb601"/></g><rect x="0" y="106.57777777777778" width="53.28888888888889" height="53.28888888888889" fill="#000814"/><g transform="translate(0,106.58) scale(1.332) rotate(0)"><path fill-rule="evenodd" clip-rule="evenodd" d="M10 20C15.5228 20 20 15.5228 20 10C20 4.47715 15.5228 0 10 0C4.47715 0 0 4.47715 0 10C0 15.5228 4.47715 20 10 20ZM10 17C13.866 17 17 13.866 17 10C17 6.13401 13.866 3 10 3C6.13401 3 3 6.13401 3 10C3 13.866 6.13401 17 10 17Z" fill="#54460d"/></g><g transform="translate(26.64,133.22) scale(1.332) rotate(0)"><rect width="2" height="20" fill="#272411"/><rect x="4" width="2" height="20" fill="#272411"/><rect x="8" width="2" height="20" fill="#272411"/><rect x="12" width="2" height="20" fill="#272411"/><rect x="16" width="2" height="20" fill="#272411"/></g><rect x="106.57777777777778" y="106.57777777777778" width="53.28888888888889" height="53.28888888888889" fill="#000814"/><g transform="translate(106.58,133.22) scale(1.332) rotate(0)"><rect width="2" height="20" fill="#a68207"/><rect x="4" width="2" height="20" fill="#a68207"/><rect x="8" width="2" height="20" fill="#a68207"/><rect x="12" width="2" height="20" fill="#a68207"/><rect x="16" width="2" height="20" fill="#a68207"/></g><g transform="translate(133.22,133.22) scale(1.332) rotate(0)"><rect width="2" height="20" fill="#43390f"/><rect x="4" width="2" height="20" fill="#43390f"/><rect x="8" width="2" height="20" fill="#43390f"/><rect x="12" width="2" height="20" fill="#43390f"/><rect x="16" width="2" height="20" fill="#43390f"/></g><rect x="426.31111111111113" y="106.57777777777778" width="53.28888888888889" height="53.28888888888889" fill="#000814"/><g transform="translate(452.96,106.58) scale(1.332) rotate(0)"><path d="M5 0H10L5 5L0 10V5L5 0Z" fill="#b18a06"/><path d="M20 15V20H15L20 15Z" fill="#b18a06"/><path d="M20 5V10L15 15L10 20H5L20 5Z" fill="#b18a06"/><path d="M15 0H20L5 15.0002L0 20.0002V15.0002L15 0Z" fill="#b18a06"/></g><rect x="746.0444444444445" y="106.57777777777778" width="53.28888888888889" height="53.28888888888889" fill="#000814"/><g transform="translate(746.04,106.58) scale(1.332) rotate(0)"><rect width="2" height="20" fill="#745d0b"/><rect x="4" width="2" height="20" fill="#745d0b"/><rect x="8" width="2" height="20" fill="#745d0b"/><rect x="12" width="2" height="20" fill="#745d0b"/><rect x="16" width="2" height="20" fill="#745d0b"/></g><g transform="translate(772.69,106.58) scale(1.332) rotate(0)"><path fill-rule="evenodd" clip-rule="evenodd" d="M10 20C15.5228 20 20 15.5228 20 10C20 4.47715 15.5228 0 10 0C4.47715 0 0 4.47715 0 10C0 15.5228 4.47715 20 10 20ZM10 17C13.866 17 17 13.866 17 10C17 6.13401 13.866 3 10 3C6.13401 3 3 6.13401 3 10C3 13.866 6.13401 17 10 17Z" fill="#8e7009"/></g><g transform="translate(746.04,133.22) scale(1.332) rotate(0)"><path fill-rule="evenodd" clip-rule="evenodd" d="M10 20C15.5228 20 20 15.5228 20 10C20 4.47715 15.5228 0 10 0C4.47715 0 0 4.47715 0 10C0 15.5228 4.47715 20 10 20ZM10 17C13.866 17 17 13.866 17 10C17 6.13401 13.866 3 10 3C6.13401 3 3 6.13401 3 10C3 13.866 6.13401 17 10 17Z" fill="#e5b002"/></g><rect x="213.15555555555557" y="159.86666666666667" width="53.28888888888889" height="53.28888888888889" fill="#000814"/><g transform="translate(239.8,186.51) scale(1.332) rotate(0)"><path d="M5 0H10L5 5L0 10V5L5 0Z" fill="#443a0f"/><path d="M20 15V20H15L20 15Z" fill="#443a0f"/><path d="M20 5V10L15 15L10 20H5L20 5Z" fill="#443a0f"/><path d="M15 0H20L5 15.0002L0 20.0002V15.0002L15 0Z" fill="#443a0f"/></g><rect x="319.73333333333335" y="159.86666666666667" width="53.28888888888889" height="53.28888888888889" fill="#000814"/><rect x="373.02222222222224" y="159.86666666666667" width="53.28888888888889" height="53.28888888888889" fill="#000814"/><rect x="426.31111111111113" y="159.86666666666667" width="53.28888888888889" height="53.28888888888889" fill="#000814"/><g transform="translate(452.96,159.87) scale(1.332) rotate(0)"><path fill-rule="evenodd" clip-rule="evenodd" d="M10 20C15.5228 20 20 15.5228 20 10C20 4.47715 15.5228 0 10 0C4.47715 0 0 4.47715 0 10C0 15.5228 4.47715 20 10 20ZM10 17C13.866 17 17 13.866 17 10C17 6.13401 13.866 3 10 3C6.13401 3 3 6.13401 3 10C3 13.866 6.13401 17 10 17Z" fill="#987808"/></g><rect x="532.8888888888889" y="159.86666666666667" width="53.28888888888889" height="53.28888888888889" fill="#000814"/><g transform="translate(532.89,159.87) scale(1.332) rotate(0)"><path d="M5 0H10L5 5L0 10V5L5 0Z" fill="#bc9205"/><path d="M20 15V20H15L20 15Z" fill="#bc9205"/><path d="M20 5V10L15 15L10 20H5L20 5Z" fill="#bc9205"/><path d="M15 0H20L5 15.0002L0 20.0002V15.0002L15 0Z" fill="#bc9205"/></g><rect x="639.4666666666667" y="159.86666666666667" width="53.28888888888889" height="53.28888888888889" fill="#000814"/><g transform="translate(639.47,159.87) scale(1.332) rotate(0)"><path fill-rule="evenodd" clip-rule="evenodd" d="M10 20C15.5228 20 20 15.5228 20 10C20 4.47715 15.5228 0 10 0C4.47715 0 0 4.47715 0 10C0 15.5228 4.47715 20 10 20ZM10 17C13.866 17 17 13.866 17 10C17 6.13401 13.866 3 10 3C6.13401 3 3 6.13401 3 10C3 13.866 6.13401 17 10 17Z" fill="#67530c"/></g><g transform="translate(639.47,186.51) scale(1.332) rotate(0)"><rect width="2" height="20" fill="#4c400e"/><rect x="4" width="2" height="20" fill="#4c400e"/><rect x="8" width="2" height="20" fill="#4c400e"/><rect x="12" width="2" height="20" fill="#4c400e"/><rect x="16" width="2" height="20" fill="#4c400e"/></g><rect x="746.0444444444445" y="159.86666666666667" width="53.28888888888889" height="53.28888888888889" fill="#000814"/><rect x="532.8888888888889" y="213.15555555555557" width="53.28888888888889" height="53.28888888888889" fill="#000814"/><g transform="translate(559.53,213.16) scale(1.332) rotate(0)"><rect width="2" height="20" fill="#362f10"/><rect x="4" width="2" height="20" fill="#362f10"/><rect x="8" width="2" height="20" fill="#362f10"/><rect x="12" width="2" height="20" fill="#362f10"/><rect x="16" width="2" height="20" fill="#362f10"/></g><g transform="translate(532.89,239.8) scale(1.332) rotate(0)"><rect width="2" height="20" fill="#201f12"/><rect x="4" width="2" height="20" fill="#201f12"/><rect x="8" width="2" height="20" fill="#201f12"/><rect x="12" width="2" height="20" fill="#201f12"/><rect x="16" width="2" height="20" fill="#201f12"/></g><g transform="translate(559.53,239.8) scale(1.332) rotate(0)"><rect width="2" height="20" fill="#5b4b0d"/><rect x="4" width="2" height="20" fill="#5b4b0d"/><rect x="8" width="2" height="20" fill="#5b4b0d"/><rect x="12" width="2" height="20" fill="#5b4b0d"/><rect x="16" width="2" height="20" fill="#5b4b0d"/></g><rect x="799.3333333333334" y="213.15555555555557" width="53.28888888888889" height="53.28888888888889" fill="#000814"/><g transform="translate(799.33,213.16) scale(1.332) rotate(0)"><path d="M5 0H10L5 5L0 10V5L5 0Z" fill="#342e10"/><path d="M20 15V20H15L20 15Z" fill="#342e10"/><path d="M20 5V10L15 15L10 20H5L20 5Z" fill="#342e10"/><path d="M15 0H20L5 15.0002L0 20.0002V15.0002L15 0Z" fill="#342e10"/></g><g transform="translate(825.98,239.8) scale(1.332) rotate(0)"><path fill-rule="evenodd" clip-rule="evenodd" d="M10 20C15.5228 20 20 15.5228 20 10C20 4.47715 15.5228 0 10 0C4.47715 0 0 4.47715 0 10C0 15.5228 4.47715 20 10 20ZM10 17C13.866 17 17 13.866 17 10C17 6.13401 13.866 3 10 3C6.13401 3 3 6.13401 3 10C3 13.866 6.13401 17 10 17Z" fill="#907109"/></g><rect x="53.28888888888889" y="266.44444444444446" width="53.28888888888889" height="53.28888888888889" fill="#000814"/><g transform="translate(53.29,266.44) scale(1.332) rotate(0)"><path d="M5 0H10L5 5L0 10V5L5 0Z" fill="#9c7a08"/><path d="M20 15V20H15L20 15Z" fill="#9c7a08"/><path d="M20 5V10L15 15L10 20H5L20 5Z" fill="#9c7a08"/><path d="M15 0H20L5 15.0002L0 20.0002V15.0002L15 0Z" fill="#9c7a08"/></g><g transform="translate(79.93,266.44) scale(1.332) rotate(0)"><path fill-rule="evenodd" clip-rule="evenodd" d="M10 20C15.5228 20 20 15.5228 20 10C20 4.47715 15.5228 0 10 0C4.47715 0 0 4.47715 0 10C0 15.5228 4.47715 20 10 20ZM10 17C13.866 17 17 13.866 17 10C17 6.13401 13.866 3 10 3C6.13401 3 3 6.13401 3 10C3 13.866 6.13401 17 10 17Z" fill="#292611"/></g><g transform="translate(53.29,293.09) scale(1.332) rotate(0)"><path fill-rule="evenodd" clip-rule="evenodd" d="M10 20C15.5228 20 20 15.5228 20 10C20 4.47715 15.5228 0 10 0C4.47715 0 0 4.47715 0 10C0 15.5228 4.47715 20 10 20ZM10 17C13.866 17 17 13.866 17 10C17 6.13401 13.866 3 10 3C6.13401 3 3 6.13401 3 10C3 13.866 6.13401 17 10 17Z" fill="#090f13"/></g><g transform="translate(79.93,293.09) scale(1.332) rotate(0)"><path d="M5 0H10L5 5L0 10V5L5 0Z" fill="#141712"/><path d="M20 15V20H15L20 15Z" fill="#141712"/><path d="M20 5V10L15 15L10 20H5L20 5Z" fill="#141712"/><path d="M15 0H20L5 15.0002L0 20.0002V15.0002L15 0Z" fill="#141712"/></g><rect x="106.57777777777778" y="266.44444444444446" width="53.28888888888889" height="53.28888888888889" fill="#000814"/><rect x="373.02222222222224" y="266.44444444444446" width="53.28888888888889" height="53.28888888888889" fill="#000814"/><g transform="translate(373.02,266.44) scale(1.332) rotate(0)"><path d="M5 0H10L5 5L0 10V5L5 0Z" fill="#55460d"/><path d="M20 15V20H15L20 15Z" fill="#55460d"/><path d="M20 5V10L15 15L10 20H5L20 5Z" fill="#55460d"/><path d="M15 0H20L5 15.0002L0 20.0002V15.0002L15 0Z" fill="#55460d"/></g><g transform="translate(373.02,293.09) scale(1.332) rotate(0)"><path d="M5 0H10L5 5L0 10V5L5 0Z" fill="#78600b"/><path d="M20 15V20H15L20 15Z" fill="#78600b"/><path d="M20 5V10L15 15L10 20H5L20 5Z" fill="#78600b"/><path d="M15 0H20L5 15.0002L0 20.0002V15.0002L15 0Z" fill="#78600b"/></g><g transform="translate(399.67,293.09) scale(1.332) rotate(0)"><path fill-rule="evenodd" clip-rule="evenodd" d="M10 20C15.5228 20 20 15.5228 20 10C20 4.47715 15.5228 0 10 0C4.47715 0 0 4.47715 0 10C0 15.5228 4.47715 20 10 20ZM10 17C13.866 17 17 13.866 17 10C17 6.13401 13.866 3 10 3C6.13401 3 3 6.13401 3 10C3 13.866 6.13401 17 10 17Z" fill="#765f0b"/></g><rect x="586.1777777777778" y="266.44444444444446" width="53.28888888888889" height="53.28888888888889" fill="#000814"/><g transform="translate(586.18,293.09) scale(1.332) rotate(0)"><path d="M5 0H10L5 5L0 10V5L5 0Z" fill="#9c7a08"/><path d="M20 15V20H15L20 15Z" fill="#9c7a08"/><path d="M20 5V10L15 15L10 20H5L20 5Z" fill="#9c7a08"/><path d="M15 0H20L5 15.0002L0 20.0002V15.0002L15 0Z" fill="#9c7a08"/></g><rect x="692.7555555555556" y="266.44444444444446" width="53.28888888888889" height="53.28888888888889" fill="#000814"/><g transform="translate(692.76,266.44) scale(1.332) rotate(0)"><path d="M5 0H10L5 5L0 10V5L5 0Z" fill="#66530c"/><path d="M20 15V20H15L20 15Z" fill="#66530c"/><path d="M20 5V10L15 15L10 20H5L20 5Z" fill="#66530c"/><path d="M15 0H20L5 15.0002L0 20.0002V15.0002L15 0Z" fill="#66530c"/></g><g transform="translate(692.76,293.09) scale(1.332) rotate(0)"><path fill-rule="evenodd" clip-rule="evenodd" d="M10 20C15.5228 20 20 15.5228 20 10C20 4.47715 15.5228 0 10 0C4.47715 0 0 4.47715 0 10C0 15.5228 4.47715 20 10 20ZM10 17C13.866 17 17 13.866 17 10C17 6.13401 13.866 3 10 3C6.13401 3 3 6.13401 3 10C3 13.866 6.13401 17 10 17Z" fill="#62500c"/></g><g transform="translate(719.4,293.09) scale(1.332) rotate(0)"><path d="M5 0H10L5 5L0 10V5L5 0Z" fill="#614f0c"/><path d="M20 15V20H15L20 15Z" fill="#614f0c"/><path d="M20 5V10L15 15L10 20H5L20 5Z" fill="#614f0c"/><path d="M15 0H20L5 15.0002L0 20.0002V15.0002L15 0Z" fill="#614f0c"/></g><rect x="746.0444444444445" y="266.44444444444446" width="53.28888888888889" height="53.28888888888889" fill="#000814"/><g transform="translate(772.69,266.44) scale(1.332) rotate(0)"><path fill-rule="evenodd" clip-rule="evenodd" d="M10 20C15.5228 20 20 15.5228 20 10C20 4.47715 15.5228 0 10 0C4.47715 0 0 4.47715 0 10C0 15.5228 4.47715 20 10 20ZM10 17C13.866 17 17 13.866 17 10C17 6.13401 13.866 3 10 3C6.13401 3 3 6.13401 3 10C3 13.866 6.13401 17 10 17Z" fill="#7a610a"/></g><rect x="53.28888888888889" y="319.73333333333335" width="53.28888888888889" height="53.28888888888889" fill="#000814"/><g transform="translate(53.29,346.38) scale(1.332) rotate(0)"><path d="M5 0H10L5 5L0 10V5L5 0Z" fill="#ddaa03"/><path d="M20 15V20H15L20 15Z" fill="#ddaa03"/><path d="M20 5V10L15 15L10 20H5L20 5Z" fill="#ddaa03"/><path d="M15 0H20L5 15.0002L0 20.0002V15.0002L15 0Z" fill="#ddaa03"/></g><rect x="213.15555555555557" y="319.73333333333335" width="53.28888888888889" height="53.28888888888889" fill="#000814"/><g transform="translate(239.8,319.73) scale(1.332) rotate(0)"><path d="M5 0H10L5 5L0 10V5L5 0Z" fill="#daa803"/><path d="M20 15V20H15L20 15Z" fill="#daa803"/><path d="M20 5V10L15 15L10 20H5L20 5Z" fill="#daa803"/><path d="M15 0H20L5 15.0002L0 20.0002V15.0002L15 0Z" fill="#daa803"/></g><rect x="319.73333333333335" y="319.73333333333335" width="53.28888888888889" height="53.28888888888889" fill="#000814"/><g transform="translate(319.73,319.73) scale(1.332) rotate(0)"><path d="M5 0H10L5 5L0 10V5L5 0Z" fill="#aa8507"/><path d="M20 15V20H15L20 15Z" fill="#aa8507"/><path d="M20 5V10L15 15L10 20H5L20 5Z" fill="#aa8507"/><path d="M15 0H20L5 15.0002L0 20.0002V15.0002L15 0Z" fill="#aa8507"/></g><g transform="translate(346.38,319.73) scale(1.332) rotate(0)"><path d="M5 0H10L5 5L0 10V5L5 0Z" fill="#977708"/><path d="M20 15V20H15L20 15Z" fill="#977708"/><path d="M20 5V10L15 15L10 20H5L20 5Z" fill="#977708"/><path d="M15 0H20L5 15.0002L0 20.0002V15.0002L15 0Z" fill="#977708"/></g><rect x="426.31111111111113" y="319.73333333333335" width="53.28888888888889" height="53.28888888888889" fill="#000814"/><rect x="479.6" y="319.73333333333335" width="53.28888888888889" height="53.28888888888889" fill="#000814"/><rect x="532.8888888888889" y="319.73333333333335" width="53.28888888888889" height="53.28888888888889" fill="#000814"/><g transform="translate(532.89,346.38) scale(1.332) rotate(0)"><rect width="2" height="20" fill="#252311"/><rect x="4" width="2" height="20" fill="#252311"/><rect x="8" width="2" height="20" fill="#252311"/><rect x="12" width="2" height="20" fill="#252311"/><rect x="16" width="2" height="20" fill="#252311"/></g><g transform="translate(559.53,346.38) scale(1.332) rotate(0)"><path fill-rule="evenodd" clip-rule="evenodd" d="M10 20C15.5228 20 20 15.5228 20 10C20 4.47715 15.5228 0 10 0C4.47715 0 0 4.47715 0 10C0 15.5228 4.47715 20 10 20ZM10 17C13.866 17 17 13.866 17 10C17 6.13401 13.866 3 10 3C6.13401 3 3 6.13401 3 10C3 13.866 6.13401 17 10 17Z" fill="#fbc000"/></g><rect x="639.4666666666667" y="319.73333333333335" width="53.28888888888889" height="53.28888888888889" fill="#000814"/><g transform="translate(639.47,346.38) scale(1.332) rotate(0)"><path fill-rule="evenodd" clip-rule="evenodd" d="M10 20C15.5228 20 20 15.5228 20 10C20 4.47715 15.5228 0 10 0C4.47715 0 0 4.47715 0 10C0 15.5228 4.47715 20 10 20ZM10 17C13.866 17 17 13.866 17 10C17 6.13401 13.866 3 10 3C6.13401 3 3 6.13401 3 10C3 13.866 6.13401 17 10 17Z" fill="#f7bd01"/></g><rect x="799.3333333333334" y="319.73333333333335" width="53.28888888888889" height="53.28888888888889" fill="#000814"/><g transform="translate(825.98,319.73) scale(1.332) rotate(0)"><path d="M5 0H10L5 5L0 10V5L5 0Z" fill="#917309"/><path d="M20 15V20H15L20 15Z" fill="#917309"/><path d="M20 5V10L15 15L10 20H5L20 5Z" fill="#917309"/><path d="M15 0H20L5 15.0002L0 20.0002V15.0002L15 0Z" fill="#917309"/></g><g transform="translate(799.33,346.38) scale(1.332) rotate(0)"><path d="M5 0H10L5 5L0 10V5L5 0Z" fill="#3c340f"/><path d="M20 15V20H15L20 15Z" fill="#3c340f"/><path d="M20 5V10L15 15L10 20H5L20 5Z" fill="#3c340f"/><path d="M15 0H20L5 15.0002L0 20.0002V15.0002L15 0Z" fill="#3c340f"/></g><g transform="translate(825.98,346.38) scale(1.332) rotate(0)"><rect width="2" height="20" fill="#1b1c12"/><rect x="4" width="2" height="20" fill="#1b1c12"/><rect x="8" width="2" height="20" fill="#1b1c12"/><rect x="12" width="2" height="20" fill="#1b1c12"/><rect x="16" width="2" height="20" fill="#1b1c12"/></g><rect x="0" y="373.02222222222224" width="53.28888888888889" height="53.28888888888889" fill="#000814"/><g transform="translate(26.64,373.02) scale(1.332) rotate(0)"><rect width="2" height="20" fill="#312c10"/><rect x="4" width="2" height="20" fill="#312c10"/><rect x="8" width="2" height="20" fill="#312c10"/><rect x="12" width="2" height="20" fill="#312c10"/><rect x="16" width="2" height="20" fill="#312c10"/></g><g transform="translate(26.64,399.67) scale(1.332) rotate(0)"><rect width="2" height="20" fill="#e4af02"/><rect x="4" width="2" height="20" fill="#e4af02"/><rect x="8" width="2" height="20" fill="#e4af02"/><rect x="12" width="2" height="20" fill="#e4af02"/><rect x="16" width="2" height="20" fill="#e4af02"/></g><rect x="266.44444444444446" y="373.02222222222224" width="53.28888888888889" height="53.28888888888889" fill="#000814"/><g transform="translate(266.44,373.02) scale(1.332) rotate(0)"><path d="M5 0H10L5 5L0 10V5L5 0Z" fill="#67540c"/><path d="M20 15V20H15L20 15Z" fill="#67540c"/><path d="M20 5V10L15 15L10 20H5L20 5Z" fill="#67540c"/><path d="M15 0H20L5 15.0002L0 20.0002V15.0002L15 0Z" fill="#67540c"/></g><g transform="translate(266.44,399.67) scale(1.332) rotate(0)"><path fill-rule="evenodd" clip-rule="evenodd" d="M10 20C15.5228 20 20 15.5228 20 10C20 4.47715 15.5228 0 10 0C4.47715 0 0 4.47715 0 10C0 15.5228 4.47715 20 10 20ZM10 17C13.866 17 17 13.866 17 10C17 6.13401 13.866 3 10 3C6.13401 3 3 6.13401 3 10C3 13.866 6.13401 17 10 17Z" fill="#5c4b0d"/></g><rect x="586.1777777777778" y="373.02222222222224" width="53.28888888888889" height="53.28888888888889" fill="#000814"/><g transform="translate(612.82,373.02) scale(1.332) rotate(0)"><path fill-rule="evenodd" clip-rule="evenodd" d="M10 20C15.5228 20 20 15.5228 20 10C20 4.47715 15.5228 0 10 0C4.47715 0 0 4.47715 0 10C0 15.5228 4.47715 20 10 20ZM10 17C13.866 17 17 13.866 17 10C17 6.13401 13.866 3 10 3C6.13401 3 3 6.13401 3 10C3 13.866 6.13401 17 10 17Z" fill="#b99006"/></g><rect x="692.7555555555556" y="373.02222222222224" width="53.28888888888889" height="53.28888888888889" fill="#000814"/><g transform="translate(719.4,373.02) scale(1.332) rotate(0)"><path d="M5 0H10L5 5L0 10V5L5 0Z" fill="#4e410e"/><path d="M20 15V20H15L20 15Z" fill="#4e410e"/><path d="M20 5V10L15 15L10 20H5L20 5Z" fill="#4e410e"/><path d="M15 0H20L5 15.0002L0 20.0002V15.0002L15 0Z" fill="#4e410e"/></g><g transform="translate(692.76,399.67) scale(1.332) rotate(0)"><path d="M5 0H10L5 5L0 10V5L5 0Z" fill="#f1b901"/><path d="M20 15V20H15L20 15Z" fill="#f1b901"/><path d="M20 5V10L15 15L10 20H5L20 5Z" fill="#f1b901"/><path d="M15 0H20L5 15.0002L0 20.0002V15.0002L15 0Z" fill="#f1b901"/></g><rect x="746.0444444444445" y="373.02222222222224" width="53.28888888888889" height="53.28888888888889" fill="#000814"/><g transform="translate(746.04,399.67) scale(1.332) rotate(0)"><rect width="2" height="20" fill="#eab302"/><rect x="4" width="2" height="20" fill="#eab302"/><rect x="8" width="2" height="20" fill="#eab302"/><rect x="12" width="2" height="20" fill="#eab302"/><rect x="16" width="2" height="20" fill="#eab302"/></g><g transform="translate(772.69,399.67) scale(1.332) rotate(0)"><path d="M5 0H10L5 5L0 10V5L5 0Z" fill="#a98407"/><path d="M20 15V20H15L20 15Z" fill="#a98407"/><path d="M20 5V10L15 15L10 20H5L20 5Z" fill="#a98407"/><path d="M15 0H20L5 15.0002L0 20.0002V15.0002L15 0Z" fill="#a98407"/></g><rect x="799.3333333333334" y="373.02222222222224" width="53.28888888888889" height="53.28888888888889" fill="#000814"/><g transform="translate(825.98,373.02) scale(1.332) rotate(0)"><path d="M5 0H10L5 5L0 10V5L5 0Z" fill="#212011"/><path d="M20 15V20H15L20 15Z" fill="#212011"/><path d="M20 5V10L15 15L10 20H5L20 5Z" fill="#212011"/><path d="M15 0H20L5 15.0002L0 20.0002V15.0002L15 0Z" fill="#212011"/></g><rect x="373.02222222222224" y="426.31111111111113" width="53.28888888888889" height="53.28888888888889" fill="#000814"/><g transform="translate(399.67,426.31) scale(1.332) rotate(0)"><rect width="2" height="20" fill="#917209"/><rect x="4" width="2" height="20" fill="#917209"/><rect x="8" width="2" height="20" fill="#917209"/><rect x="12" width="2" height="20" fill="#917209"/><rect x="16" width="2" height="20" fill="#917209"/></g><rect x="479.6" y="426.31111111111113" width="53.28888888888889" height="53.28888888888889" fill="#000814"/><g transform="translate(479.6,426.31) scale(1.332) rotate(0)"><path d="M5 0H10L5 5L0 10V5L5 0Z" fill="#090f13"/><path d="M20 15V20H15L20 15Z" fill="#090f13"/><path d="M20 5V10L15 15L10 20H5L20 5Z" fill="#090f13"/><path d="M15 0H20L5 15.0002L0 20.0002V15.0002L15 0Z" fill="#090f13"/></g><g transform="translate(506.24,426.31) scale(1.332) rotate(0)"><rect width="2" height="20" fill="#81660a"/><rect x="4" width="2" height="20" fill="#81660a"/><rect x="8" width="2" height="20" fill="#81660a"/><rect x="12" width="2" height="20" fill="#81660a"/><rect x="16" width="2" height="20" fill="#81660a"/></g><g transform="translate(479.6,452.96) scale(1.332) rotate(0)"><rect width="2" height="20" fill="#2b2811"/><rect x="4" width="2" height="20" fill="#2b2811"/><rect x="8" width="2" height="20" fill="#2b2811"/><rect x="12" width="2" height="20" fill="#2b2811"/><rect x="16" width="2" height="20" fill="#2b2811"/></g><g transform="translate(506.24,452.96) scale(1.332) rotate(0)"><path d="M5 0H10L5 5L0 10V5L5 0Z" fill="#272511"/><path d="M20 15V20H15L20 15Z" fill="#272511"/><path d="M20 5V10L15 15L10 20H5L20 5Z" fill="#272511"/><path d="M15 0H20L5 15.0002L0 20.0002V15.0002L15 0Z" fill="#272511"/></g><rect x="639.4666666666667" y="426.31111111111113" width="53.28888888888889" height="53.28888888888889" fill="#000814"/><rect x="692.7555555555556" y="426.31111111111113" width="53.28888888888889" height="53.28888888888889" fill="#000814"/><g transform="translate(719.4,452.96) scale(1.332) rotate(0)"><rect width="2" height="20" fill="#917309"/><rect x="4" width="2" height="20" fill="#917309"/><rect x="8" width="2" height="20" fill="#917309"/><rect x="12" width="2" height="20" fill="#917309"/><rect x="16" width="2" height="20" fill="#917309"/></g></g></svg>